<?xml version="1.0" encoding="utf-8"?>
<!-- Generator: Adobe Illustrator 28.1.0, SVG Export Plug-In . SVG Version: 6.00 Build 0)  -->
<svg version="1.1" id="Layer_1" xmlns="http://www.w3.org/2000/svg" xmlns:xlink="http://www.w3.org/1999/xlink" x="0px" y="0px"
	 viewBox="0 0 524 524" style="enable-background:new 0 0 524 524;" xml:space="preserve">
<style type="text/css">
	.st0{fill:#242332;}
	.st1{fill:#CCBDF6;}
</style>
<g>
	<circle class="st0" cx="262" cy="262" r="262"/>
	<g>
		<path class="st1" d="M360.46,332.39c-14.22-23.7-28.03-46.71-42.1-70.16c1.43-0.07,2.24-0.14,3.04-0.14
			c15.67-0.01,31.33,0.03,47-0.05c2-0.01,3.15,0.65,4.18,2.36c13.46,22.52,27,45,40.46,67.52c0.59,0.99,0.79,2.35,0.8,3.53
			c0.06,12.33,0.04,24.67,0.03,37c0,3.26-0.01,3.27-3.31,3.27c-62.33,0-124.66-0.11-186.99,0.08c-17.16,0.05-33.53-2.99-48.88-10.51
			c-30.84-15.11-51.37-39.36-60.11-72.48c-10.77-40.84-2.05-77.81,26.46-109.17c21.02-23.13,47.79-34.94,79.17-35.3
			c27-0.31,54-0.06,80.99-0.08c1.57,0,2.79,0.16,3.75,1.77c7.84,13.17,15.77,26.29,23.67,39.43c0.29,0.49,0.49,1.03,0.91,1.91
			c-1.44,0.09-2.63,0.23-3.83,0.23c-34.16,0.01-68.33,0.3-102.49-0.07c-34.58-0.38-62.52,23.78-69.14,55.88
			c-8.07,39.14,16.97,76.83,54.97,83.91c3.83,0.71,7.78,1.02,11.68,1.03c45.41,0.07,90.83,0.05,136.24,0.05
			C357.87,332.39,358.77,332.39,360.46,332.39z"/>
		<path class="st1" d="M215.88,311.63c-11.72-0.06-21.06-9.76-21.02-21.83c0.04-11.95,9.63-21.61,21.36-21.51
			c11.53,0.1,20.95,9.89,20.93,21.73C237.13,302,227.58,311.69,215.88,311.63z"/>
		<path class="st1" d="M215.94,251.6c-11.71-0.02-21.17-9.78-21.07-21.76c0.09-11.94,9.44-21.51,21.06-21.55
			c11.68-0.04,21.27,9.74,21.24,21.66C237.13,241.95,227.65,251.62,215.94,251.6z"/>
	</g>
</g>
</svg>
